<mxfile host="app.diagrams.net" modified="2022-08-24T08:22:41.290Z" agent="5.0 (Macintosh; Intel Mac OS X 10_15_7) AppleWebKit/537.36 (KHTML, like Gecko) Chrome/104.0.0.0 Safari/537.36" etag="YzOWYbhuqXnsVxG-MWdC" version="20.2.4" type="github">
  <diagram id="QGciWz5QOZAs0Fy6w9OT" name="第 1 页">
    <mxGraphModel dx="1773" dy="562" grid="1" gridSize="10" guides="1" tooltips="1" connect="1" arrows="1" fold="1" page="1" pageScale="1" pageWidth="827" pageHeight="1169" math="0" shadow="0">
      <root>
        <mxCell id="0" />
        <mxCell id="1" parent="0" />
        <mxCell id="D2RsaCyo_Tm6DuhNRYhF-1" value="ESTABLISH" style="rounded=0;whiteSpace=wrap;html=1;fontSize=16;fillColor=#d5e8d4;strokeColor=#82b366;gradientColor=#97d077;" vertex="1" parent="1">
          <mxGeometry x="120" y="210" width="120" height="70" as="geometry" />
        </mxCell>
        <mxCell id="D2RsaCyo_Tm6DuhNRYhF-2" value="客户端" style="aspect=fixed;perimeter=ellipsePerimeter;html=1;align=center;shadow=0;dashed=0;spacingTop=3;image;image=img/lib/active_directory/home_page.svg;fontSize=16;" vertex="1" parent="1">
          <mxGeometry x="141.11" y="110" width="77.78" height="70" as="geometry" />
        </mxCell>
        <mxCell id="D2RsaCyo_Tm6DuhNRYhF-3" value="服务端" style="aspect=fixed;perimeter=ellipsePerimeter;html=1;align=center;shadow=0;dashed=0;spacingTop=3;image;image=img/lib/active_directory/web_server.svg;fontSize=16;" vertex="1" parent="1">
          <mxGeometry x="586.89" y="90" width="64" height="80" as="geometry" />
        </mxCell>
        <mxCell id="D2RsaCyo_Tm6DuhNRYhF-4" value="ESTABLISH" style="rounded=0;whiteSpace=wrap;html=1;fontSize=16;fillColor=#d5e8d4;strokeColor=#82b366;gradientColor=#97d077;" vertex="1" parent="1">
          <mxGeometry x="558.89" y="200" width="120" height="80" as="geometry" />
        </mxCell>
        <mxCell id="D2RsaCyo_Tm6DuhNRYhF-5" value="FIN_WAIT_1" style="rounded=0;whiteSpace=wrap;html=1;fontSize=16;fillColor=#fff2cc;strokeColor=#d6b656;gradientColor=#ffd966;" vertex="1" parent="1">
          <mxGeometry x="120" y="280" width="120" height="60" as="geometry" />
        </mxCell>
        <mxCell id="D2RsaCyo_Tm6DuhNRYhF-6" value="&lt;b style=&quot;color: rgb(255, 153, 51); font-size: 16px;&quot;&gt;FIN&lt;br style=&quot;font-size: 16px;&quot;&gt;seq = x，ack = y&lt;/b&gt;" style="rounded=0;orthogonalLoop=1;jettySize=auto;html=1;fontSize=16;exitX=1;exitY=0;exitDx=0;exitDy=0;fillColor=#ffcd28;gradientColor=#ffa500;strokeColor=#d79b00;strokeWidth=2;entryX=0;entryY=1;entryDx=0;entryDy=0;" edge="1" parent="1" target="D2RsaCyo_Tm6DuhNRYhF-4">
          <mxGeometry x="-0.125" y="10" relative="1" as="geometry">
            <mxPoint x="450" y="280" as="targetPoint" />
            <mxPoint as="offset" />
            <mxPoint x="240" y="280" as="sourcePoint" />
          </mxGeometry>
        </mxCell>
        <mxCell id="D2RsaCyo_Tm6DuhNRYhF-7" value="CLOSE_WAIT" style="rounded=0;whiteSpace=wrap;html=1;fontSize=16;fillColor=#e6d0de;strokeColor=#996185;gradientColor=#d5739d;" vertex="1" parent="1">
          <mxGeometry x="558.89" y="280" width="120" height="130" as="geometry" />
        </mxCell>
        <mxCell id="D2RsaCyo_Tm6DuhNRYhF-8" value="&lt;b style=&quot;font-size: 16px;&quot;&gt;&lt;font color=&quot;#cc00cc&quot;&gt;ACK&lt;br style=&quot;font-size: 16px;&quot;&gt;seq = y，ack = x+1&lt;/font&gt;&lt;/b&gt;" style="rounded=0;orthogonalLoop=1;jettySize=auto;html=1;fontSize=16;fillColor=#e6d0de;gradientColor=#d5739d;strokeColor=#996185;strokeWidth=2;entryX=1;entryY=1;entryDx=0;entryDy=0;" edge="1" parent="1" target="D2RsaCyo_Tm6DuhNRYhF-5">
          <mxGeometry x="-0.1061" relative="1" as="geometry">
            <mxPoint x="250" y="340" as="targetPoint" />
            <mxPoint as="offset" />
            <mxPoint x="550" y="340" as="sourcePoint" />
          </mxGeometry>
        </mxCell>
        <mxCell id="D2RsaCyo_Tm6DuhNRYhF-9" value="FIN_WAIT_2" style="rounded=0;whiteSpace=wrap;html=1;fontSize=16;fillColor=#ffcd28;strokeColor=#d79b00;gradientColor=#ffa500;" vertex="1" parent="1">
          <mxGeometry x="120" y="340" width="120" height="660" as="geometry" />
        </mxCell>
        <mxCell id="D2RsaCyo_Tm6DuhNRYhF-10" value="close() 关闭连接" style="text;html=1;align=center;verticalAlign=middle;resizable=0;points=[];autosize=1;strokeColor=#36393d;fillColor=#ffff88;fontSize=15;" vertex="1" parent="1">
          <mxGeometry x="115" y="260" width="130" height="30" as="geometry" />
        </mxCell>
        <mxCell id="D2RsaCyo_Tm6DuhNRYhF-13" value="CLOSE" style="rounded=0;whiteSpace=wrap;html=1;fontSize=16;fillColor=#f5f5f5;strokeColor=#666666;gradientColor=#b3b3b3;" vertex="1" parent="1">
          <mxGeometry x="120" y="1000" width="120" height="40" as="geometry" />
        </mxCell>
        <mxCell id="D2RsaCyo_Tm6DuhNRYhF-14" value="close() 关闭连接" style="text;html=1;align=center;verticalAlign=middle;resizable=0;points=[];autosize=1;strokeColor=#36393d;fillColor=#ffff88;fontSize=15;" vertex="1" parent="1">
          <mxGeometry x="553.89" y="400" width="130" height="30" as="geometry" />
        </mxCell>
        <mxCell id="D2RsaCyo_Tm6DuhNRYhF-15" value="LAST_ACK" style="rounded=0;whiteSpace=wrap;html=1;fontSize=16;fillColor=#dae8fc;strokeColor=#6c8ebf;gradientColor=#7ea6e0;" vertex="1" parent="1">
          <mxGeometry x="558.89" y="430" width="120" height="570" as="geometry" />
        </mxCell>
        <mxCell id="D2RsaCyo_Tm6DuhNRYhF-16" value="&lt;b style=&quot;font-size: 16px;&quot;&gt;&lt;font color=&quot;#004c99&quot;&gt;FIN&lt;br style=&quot;font-size: 16px;&quot;&gt;seq = y，ack = x+1&lt;/font&gt;&lt;/b&gt;" style="rounded=0;orthogonalLoop=1;jettySize=auto;html=1;fontSize=16;fillColor=#dae8fc;gradientColor=#7ea6e0;strokeColor=#6c8ebf;strokeWidth=2;" edge="1" parent="1">
          <mxGeometry x="0.0896" relative="1" as="geometry">
            <mxPoint x="350" y="470" as="targetPoint" />
            <mxPoint as="offset" />
            <mxPoint x="558.89" y="470" as="sourcePoint" />
          </mxGeometry>
        </mxCell>
        <mxCell id="D2RsaCyo_Tm6DuhNRYhF-17" value="丢失" style="text;html=1;align=center;verticalAlign=middle;resizable=0;points=[];autosize=1;strokeColor=#B20000;fillColor=#e51400;fontSize=16;fontColor=#ffffff;" vertex="1" parent="1">
          <mxGeometry x="290" y="450" width="60" height="30" as="geometry" />
        </mxCell>
        <mxCell id="D2RsaCyo_Tm6DuhNRYhF-18" value="&lt;b style=&quot;font-size: 16px;&quot;&gt;&lt;font color=&quot;#ff0000&quot;&gt;重传&lt;/font&gt;&lt;font color=&quot;#004c99&quot;&gt; FIN&lt;br style=&quot;font-size: 16px;&quot;&gt;seq = y，ack = x+1&lt;/font&gt;&lt;/b&gt;" style="rounded=0;orthogonalLoop=1;jettySize=auto;html=1;fontSize=16;fillColor=#dae8fc;gradientColor=#7ea6e0;strokeColor=#6c8ebf;strokeWidth=2;" edge="1" parent="1">
          <mxGeometry x="0.0896" relative="1" as="geometry">
            <mxPoint x="350" y="520" as="targetPoint" />
            <mxPoint as="offset" />
            <mxPoint x="558.8899999999999" y="520" as="sourcePoint" />
          </mxGeometry>
        </mxCell>
        <mxCell id="D2RsaCyo_Tm6DuhNRYhF-19" value="丢失" style="text;html=1;align=center;verticalAlign=middle;resizable=0;points=[];autosize=1;strokeColor=#B20000;fillColor=#e51400;fontSize=16;fontColor=#ffffff;" vertex="1" parent="1">
          <mxGeometry x="290" y="500" width="60" height="30" as="geometry" />
        </mxCell>
        <mxCell id="D2RsaCyo_Tm6DuhNRYhF-20" value="&lt;b&gt;&lt;font color=&quot;#ff0000&quot;&gt;重传&amp;nbsp;&lt;/font&gt;&lt;/b&gt;&lt;b style=&quot;font-size: 16px;&quot;&gt;&lt;font color=&quot;#004c99&quot;&gt;FIN&lt;br style=&quot;font-size: 16px;&quot;&gt;seq = y，ack = x+1&lt;/font&gt;&lt;/b&gt;" style="rounded=0;orthogonalLoop=1;jettySize=auto;html=1;fontSize=16;fillColor=#dae8fc;gradientColor=#7ea6e0;strokeColor=#6c8ebf;strokeWidth=2;" edge="1" parent="1">
          <mxGeometry x="0.0896" relative="1" as="geometry">
            <mxPoint x="350" y="600" as="targetPoint" />
            <mxPoint as="offset" />
            <mxPoint x="558.8899999999999" y="600" as="sourcePoint" />
          </mxGeometry>
        </mxCell>
        <mxCell id="D2RsaCyo_Tm6DuhNRYhF-21" value="丢失" style="text;html=1;align=center;verticalAlign=middle;resizable=0;points=[];autosize=1;strokeColor=#B20000;fillColor=#e51400;fontSize=16;fontColor=#ffffff;" vertex="1" parent="1">
          <mxGeometry x="290" y="580" width="60" height="30" as="geometry" />
        </mxCell>
        <mxCell id="D2RsaCyo_Tm6DuhNRYhF-22" value="&lt;b&gt;&lt;font color=&quot;#ff0000&quot;&gt;重传&amp;nbsp;&lt;/font&gt;&lt;/b&gt;&lt;b style=&quot;font-size: 16px;&quot;&gt;&lt;font color=&quot;#004c99&quot;&gt;FIN&lt;br style=&quot;font-size: 16px;&quot;&gt;seq = y，ack = x+1&lt;/font&gt;&lt;/b&gt;" style="rounded=0;orthogonalLoop=1;jettySize=auto;html=1;fontSize=16;fillColor=#dae8fc;gradientColor=#7ea6e0;strokeColor=#6c8ebf;strokeWidth=2;" edge="1" parent="1">
          <mxGeometry x="0.0896" relative="1" as="geometry">
            <mxPoint x="350" y="760" as="targetPoint" />
            <mxPoint as="offset" />
            <mxPoint x="558.8899999999999" y="760" as="sourcePoint" />
          </mxGeometry>
        </mxCell>
        <mxCell id="D2RsaCyo_Tm6DuhNRYhF-23" value="丢失" style="text;html=1;align=center;verticalAlign=middle;resizable=0;points=[];autosize=1;strokeColor=#B20000;fillColor=#e51400;fontSize=16;fontColor=#ffffff;" vertex="1" parent="1">
          <mxGeometry x="290" y="740" width="60" height="30" as="geometry" />
        </mxCell>
        <mxCell id="D2RsaCyo_Tm6DuhNRYhF-24" value="CLOSE" style="rounded=0;whiteSpace=wrap;html=1;fontSize=16;fillColor=#f5f5f5;strokeColor=#666666;gradientColor=#b3b3b3;" vertex="1" parent="1">
          <mxGeometry x="558.89" y="1000" width="120" height="40" as="geometry" />
        </mxCell>
        <mxCell id="D2RsaCyo_Tm6DuhNRYhF-25" value="" style="shape=curlyBracket;whiteSpace=wrap;html=1;rounded=1;fontSize=15;" vertex="1" parent="1">
          <mxGeometry x="88" y="340" width="20" height="660" as="geometry" />
        </mxCell>
        <mxCell id="D2RsaCyo_Tm6DuhNRYhF-26" value="tcp_fin_timeout &lt;br&gt;控制时长，&lt;br&gt;默认值 60 秒" style="text;html=1;align=center;verticalAlign=middle;resizable=0;points=[];autosize=1;strokeColor=#36393d;fillColor=#ffff88;fontSize=15;" vertex="1" parent="1">
          <mxGeometry x="-50" y="635" width="130" height="70" as="geometry" />
        </mxCell>
      </root>
    </mxGraphModel>
  </diagram>
</mxfile>
